<svg xmlns="http://www.w3.org/2000/svg" viewBox="0 0 152 145">
  <path fill="#EC0000" fill-rule="nonzero" d="M107.8,66.3 C107.6,61.2 106.1,56 103.5,51.4 L80,10.7 C78.2,7.6 77,4.3 76.3,0.9 L75.3,2.6 C69.5,12.7 69.5,25.1 75.3,35.2 L94.1,67.8 C99.9,77.9 99.9,90.3 94.1,100.4 L93.1,102.1 C92.4,98.7 91.2,95.4 89.4,92.3 L72.2,62.5 L61.2,43.5 C59.4,40.4 58.2,37.1 57.5,33.7 L56.5,35.4 C50.7,45.4 50.7,57.8 56.4,67.9 L75.3,100.6 C81.1,110.7 81.1,123.1 75.3,133.2 L74.3,134.9 C73.6,131.5 72.4,128.2 70.6,125.1 L47.1,84 C43.9,78.5 42.5,72.4 42.8,66.3 C17.6,72.9 0.3,86.8 0.3,103 C0.3,125.5 33.9,143.7 75.4,143.7 C116.9,143.7 150.5,125.5 150.5,103 C150.4,86.8 133,72.9 107.8,66.3 Z"/>
</svg>
